<svg width="353" height="391" viewBox="0 0 353 391" fill="none" xmlns="http://www.w3.org/2000/svg">
<rect width="353" height="391" fill="white"/>
<g id="undraw_circuit_sdmr 1">
<rect id="pow" x="42" y="130" width="218" height="240" fill="#A2EAFA"/>
<g id="uklad">
<line id="Line 1" x1="41.5" y1="128" x2="41.5" y2="366" stroke="black"/>
<line id="Line 2" x1="41" y1="367.5" x2="260" y2="367.5" stroke="black"/>
<line id="Line 3" x1="259.5" y1="368" x2="259.313" y2="128" stroke="black"/>
<rect id="Rectangle 1" x="124.5" y="105.5" width="51" height="22" fill="#C4C4C4" stroke="black"/>
<rect id="Rectangle 2" x="124.5" y="82.5" width="51" height="22" fill="#A39F9F" stroke="black"/>
<line id="Line 4" x1="124.5" y1="128" x2="124.5" y2="342" stroke="black"/>
<line id="Line 7" x1="176.004" y1="119.5" x2="301.004" y2="120.516" stroke="black"/>
<line id="Line 8" x1="149.5" y1="82.0002" x2="149.479" y2="39.0007" stroke="black"/>
<line id="Line 9" x1="150" y1="38.5" x2="299" y2="38.3644" stroke="black"/>
<path id="Ellipse 1" d="M311.5 39C311.5 40.1935 310.872 41.3076 309.791 42.1392C308.71 42.9712 307.194 43.5 305.5 43.5C303.806 43.5 302.29 42.9712 301.209 42.1392C300.128 41.3076 299.5 40.1935 299.5 39C299.5 37.8065 300.128 36.6924 301.209 35.8608C302.29 35.0288 303.806 34.5 305.5 34.5C307.194 34.5 308.71 35.0288 309.791 35.8608C310.872 36.6924 311.5 37.8065 311.5 39Z" fill="white" stroke="black"/>
<path id="Ellipse 2" d="M311.5 121C311.5 122.193 310.872 123.308 309.791 124.139C308.71 124.971 307.194 125.5 305.5 125.5C303.806 125.5 302.29 124.971 301.209 124.139C300.128 123.308 299.5 122.193 299.5 121C299.5 119.807 300.128 118.692 301.209 117.861C302.29 117.029 303.806 116.5 305.5 116.5C307.194 116.5 308.71 117.029 309.791 117.861C310.872 118.692 311.5 119.807 311.5 121Z" fill="white" stroke="black"/>
<line id="Line 10" x1="175.5" y1="126.998" x2="176.514" y2="341.998" stroke="black"/>
</g>
<line id="r01" x1="150.5" y1="127.997" x2="151.675" y2="342.996" stroke="black"/>
</g>
</svg>
