<svg width="725" height="636" viewBox="0 0 725 636" fill="none" xmlns="http://www.w3.org/2000/svg">
<rect width="725" height="636" fill="white"/>
<g id="undraw_circuit_sdmr 1">
<rect id="woda" x="250" y="350" width="218" height="230" fill="#A2EAFA"/>
<g id="uklad">
<line id="Line 1" x1="249.5" y1="341" x2="249.5" y2="579" stroke="black"/>
<line id="Line 2" x1="249" y1="580.5" x2="468" y2="580.5" stroke="black"/>
<line id="Line 3" x1="467.5" y1="581" x2="467.313" y2="341" stroke="black"/>
<rect id="Rectangle 1" x="332.5" y="318.5" width="51" height="22" fill="#C4C4C4" stroke="black"/>
<rect id="Rectangle 2" x="332.5" y="295.5" width="51" height="22" fill="#A39F9F" stroke="black"/>
<line id="Line 4" x1="332.5" y1="341" x2="332.5" y2="555" stroke="black"/>
<line id="Line 7" x1="384.004" y1="332.5" x2="509.004" y2="333.516" stroke="black"/>
<line id="Line 8" x1="357.5" y1="295" x2="357.479" y2="252.001" stroke="black"/>
<line id="Line 9" x1="358" y1="251.5" x2="507" y2="251.364" stroke="black"/>
<path id="Ellipse 1" d="M519.5 252C519.5 253.193 518.872 254.308 517.791 255.139C516.71 255.971 515.194 256.5 513.5 256.5C511.806 256.5 510.29 255.971 509.209 255.139C508.128 254.308 507.5 253.193 507.5 252C507.5 250.807 508.128 249.692 509.209 248.861C510.29 248.029 511.806 247.5 513.5 247.5C515.194 247.5 516.71 248.029 517.791 248.861C518.872 249.692 519.5 250.807 519.5 252Z" fill="white" stroke="black"/>
<path id="Ellipse 2" d="M519.5 334C519.5 335.193 518.872 336.308 517.791 337.139C516.71 337.971 515.194 338.5 513.5 338.5C511.806 338.5 510.29 337.971 509.209 337.139C508.128 336.308 507.5 335.193 507.5 334C507.5 332.807 508.128 331.692 509.209 330.861C510.29 330.029 511.806 329.5 513.5 329.5C515.194 329.5 516.71 330.029 517.791 330.861C518.872 331.692 519.5 332.807 519.5 334Z" fill="white" stroke="black"/>
<line id="Line 10" x1="383.5" y1="339.998" x2="384.514" y2="554.998" stroke="black"/>
</g>
</g>
</svg>
